<?xml version="1.0" encoding="UTF-8" standalone="no"?>
<svg
   xmlns:osb="http://www.openswatchbook.org/uri/2009/osb"
   xmlns:dc="http://purl.org/dc/elements/1.1/"
   xmlns:cc="http://creativecommons.org/ns#"
   xmlns:rdf="http://www.w3.org/1999/02/22-rdf-syntax-ns#"
   xmlns:svg="http://www.w3.org/2000/svg"
   xmlns="http://www.w3.org/2000/svg"
   xmlns:sodipodi="http://sodipodi.sourceforge.net/DTD/sodipodi-0.dtd"
   xmlns:inkscape="http://www.inkscape.org/namespaces/inkscape"
   version="1.1"
   id="svg80"
   width="321.80499"
   height="134.25151"
   viewBox="0 0 321.805 134.25151"
   sodipodi:docname="logo-toolbar.svg"
   inkscape:version="0.92.3 (2405546, 2018-03-11)">
  <sodipodi:namedview
     pagecolor="#ffffff"
     bordercolor="#666666"
     borderopacity="1"
     objecttolerance="10"
     gridtolerance="10"
     guidetolerance="10"
     inkscape:pageopacity="0"
     inkscape:pageshadow="2"
     inkscape:window-width="1920"
     inkscape:window-height="1080"
     id="namedview44"
     showgrid="false"
     inkscape:zoom="6.5407377"
     inkscape:cx="165.65996"
     inkscape:cy="25.484733"
     inkscape:window-x="0"
     inkscape:window-y="0"
     inkscape:window-maximized="0"
     inkscape:current-layer="svg80" />
  <metadata
     id="metadata86">
    <rdf:RDF>
      <cc:Work
         rdf:about="">
        <dc:format>image/svg+xml</dc:format>
        <dc:type
           rdf:resource="http://purl.org/dc/dcmitype/StillImage" />
        <dc:title />
      </cc:Work>
    </rdf:RDF>
  </metadata>
  <defs
     id="defs84">
    <linearGradient
       id="linearGradient869"
       osb:paint="solid">
      <stop
         style="stop-color:#fd0000;stop-opacity:1;"
         offset="0"
         id="stop867" />
    </linearGradient>
    <filter
       style="opacity:1;color-interpolation-filters:sRGB"
       id="filter1001">
      <feFlood
         flood-opacity="0.498039"
         flood-color="rgb(0,0,0)"
         result="flood"
         id="feFlood991" />
      <feComposite
         in="flood"
         in2="SourceGraphic"
         operator="in"
         result="composite1"
         id="feComposite993" />
      <feGaussianBlur
         in="composite1"
         stdDeviation="0.5"
         result="blur"
         id="feGaussianBlur995" />
      <feOffset
         dx="0.5"
         dy="0.5"
         result="offset"
         id="feOffset997" />
      <feComposite
         in="SourceGraphic"
         in2="offset"
         operator="over"
         result="composite2"
         id="feComposite999" />
    </filter>
    <mask
       id="mask899"
       maskUnits="userSpaceOnUse">
      <ellipse
         ry="32.001625"
         rx="31.999813"
         cy="32.001625"
         cx="31.999813"
         id="ellipse901"
         style="display:inline;opacity:1;fill:#1a1a1a;fill-opacity:1;stroke:none;stroke-width:0.49775833;stroke-miterlimit:4;stroke-dasharray:none;stroke-opacity:1" />
    </mask>
    <filter
       id="filter1001-2"
       style="opacity:1;color-interpolation-filters:sRGB">
      <feFlood
         id="feFlood991-9"
         result="flood"
         flood-color="rgb(0,0,0)"
         flood-opacity="0.498039" />
      <feComposite
         id="feComposite993-1"
         result="composite1"
         operator="in"
         in2="SourceGraphic"
         in="flood" />
      <feGaussianBlur
         id="feGaussianBlur995-2"
         result="blur"
         stdDeviation="0.5"
         in="composite1" />
      <feOffset
         id="feOffset997-7"
         result="offset"
         dy="0.5"
         dx="0.5" />
      <feComposite
         id="feComposite999-0"
         result="composite2"
         operator="over"
         in2="offset"
         in="SourceGraphic" />
    </filter>
    <filter
       id="filter1001-2-2"
       style="opacity:1;color-interpolation-filters:sRGB">
      <feFlood
         id="feFlood991-9-1"
         result="flood"
         flood-color="rgb(0,0,0)"
         flood-opacity="0.498039" />
      <feComposite
         id="feComposite993-1-0"
         result="composite1"
         operator="in"
         in2="SourceGraphic"
         in="flood" />
      <feGaussianBlur
         id="feGaussianBlur995-2-5"
         result="blur"
         stdDeviation="0.5"
         in="composite1" />
      <feOffset
         id="feOffset997-7-8"
         result="offset"
         dy="0.5"
         dx="0.5" />
      <feComposite
         id="feComposite999-0-5"
         result="composite2"
         operator="over"
         in2="offset"
         in="SourceGraphic" />
    </filter>
    <filter
       style="color-interpolation-filters:sRGB;"
       inkscape:label="Drop Shadow"
       id="filter2498">
      <feFlood
         flood-opacity="0.498039"
         flood-color="rgb(0,0,0)"
         result="flood"
         id="feFlood2488" />
      <feComposite
         in="flood"
         in2="SourceGraphic"
         operator="in"
         result="composite1"
         id="feComposite2490" />
      <feGaussianBlur
         in="composite1"
         stdDeviation="4.1"
         result="blur"
         id="feGaussianBlur2492" />
      <feOffset
         dx="1.2"
         dy="1.3"
         result="offset"
         id="feOffset2494" />
      <feComposite
         in="SourceGraphic"
         in2="offset"
         operator="over"
         result="composite2"
         id="feComposite2496" />
    </filter>
  </defs>
  <g
     id="g1168"
     style="filter:url(#filter2498)">
    <path
       inkscape:connector-curvature="0"
       style="opacity:1;fill:none;stroke:none;stroke-width:3.64287996px;stroke-linecap:butt;stroke-linejoin:miter;stroke-opacity:1"
       d="M 88.393775,30.492246 60.969147,14.658633 v 16.522033 l 27.424628,14.456779 z"
       id="path5069" />
    <path
       inkscape:connector-curvature="0"
       style="opacity:1;fill:none;stroke:none;stroke-width:2.32399273px;stroke-linecap:butt;stroke-linejoin:miter;stroke-opacity:1"
       d="m 88.40329,97.607176 32.56228,32.562274 25.56392,-66.121459 18.59195,18.591947 z"
       id="path876" />
    <path
       inkscape:connector-curvature="0"
       style="opacity:1;fill:#e2e9ee;stroke:none;stroke-width:3.64287996px;stroke-linecap:butt;stroke-linejoin:miter;stroke-opacity:1"
       d="m 88.393593,4.0820623 -27.3223,15.7738997 v 6.312169 l -45.795821,26.48763 -0.04565,-0.02586 -0.03256,0.07174 -0.0196,0.01305 0.01294,0.0067 -5.405772,13.152523 78.608661,45.385006 v 0.0848 l 0.07173,-0.0456 78.608669,-45.385009 -4.36898,-12.539564 -0.0326,-0.09781 -0.0718,0.03913 -46.88472,-27.146397 v -6.312165 z"
       id="path5059" />
    <path
       inkscape:connector-curvature="0"
       id="path5061"
       d="m 49.052923,33.106401 39.340852,22.713453 v 7.571148 L 46.867319,39.415692 Z"
       style="opacity:1;fill:#c1cfda;stroke:none;stroke-width:3.64287996px;stroke-linecap:butt;stroke-linejoin:miter;stroke-opacity:1" />
    <path
       inkscape:connector-curvature="0"
       id="path5069-9"
       d="M 88.393775,30.492246 60.969147,14.658633 v 16.522033 l 27.424628,14.456779 z"
       style="opacity:1;fill:none;stroke:none;stroke-width:3.64287996px;stroke-linecap:butt;stroke-linejoin:miter;stroke-opacity:1" />
    <path
       inkscape:connector-curvature="0"
       id="path876-3"
       d="m 88.40329,97.607176 32.56228,32.562274 25.56392,-66.121459 18.59195,18.591947 z"
       style="opacity:1;fill:none;stroke:none;stroke-width:2.32399273px;stroke-linecap:butt;stroke-linejoin:miter;stroke-opacity:1" />
    <path
       inkscape:connector-curvature="0"
       id="path5055"
       d="M 33.753703,41.939412 30.475299,50.141489 88.393775,83.58074 V 73.485875 Z"
       style="opacity:1;fill:#c1cfda;stroke:none;stroke-width:3.64287996px;stroke-linecap:butt;stroke-linejoin:miter;stroke-opacity:1" />
    <path
       inkscape:connector-curvature="0"
       id="path5063"
       d="m 88.393775,55.819854 39.340855,-22.713453 2.1856,6.309291 -41.526455,24.118355 z"
       style="opacity:1;fill:#a3afb9;stroke:none;stroke-width:3.64287996px;stroke-linecap:butt;stroke-linejoin:miter;stroke-opacity:1" />
    <path
       inkscape:connector-curvature="0"
       id="path5071"
       d="M 88.393775,46.986844 V 35.630113 L 61.07374,19.856888 v 11.356725 z"
       style="opacity:1;fill:#c1cfda;stroke:none;stroke-width:3.64287996px;stroke-linecap:butt;stroke-linejoin:miter;stroke-opacity:1" />
    <path
       inkscape:connector-curvature="0"
       id="path5073"
       d="M 88.393775,35.630113 115.71382,19.856888 V 31.213611 L 88.393775,47.014287 Z"
       style="opacity:1;fill:#a3afb9;stroke:none;stroke-width:3.64287996px;stroke-linecap:butt;stroke-linejoin:miter;stroke-opacity:1" />
    <path
       inkscape:connector-curvature="0"
       id="path5057"
       d="m 88.393775,73.485875 54.640075,-31.546463 3.2784,8.202077 -57.918475,33.439251 z"
       style="opacity:1;fill:#a3afb9;stroke:none;stroke-width:3.64287996px;stroke-linecap:butt;stroke-linejoin:miter;stroke-opacity:1" />
    <path
       inkscape:connector-curvature="0"
       id="path5051"
       d="M 88.393775,111.34162 167.07549,65.914723 162.67342,53.278319 88.393775,94.937468 Z"
       style="opacity:1;fill:#c1cfda;fill-opacity:1;stroke:none;stroke-width:3.64287996px;stroke-linecap:butt;stroke-linejoin:miter;stroke-opacity:1" />
    <path
       inkscape:connector-curvature="0"
       style="display:inline;opacity:1;fill:#c1cfda;stroke:none;stroke-width:3.64287996px;stroke-linecap:butt;stroke-linejoin:miter;stroke-opacity:1"
       d="M 15.229826,52.629677 9.7849295,65.873492 88.393593,111.2585 v 0.0848 l 0.07173,-0.0457 L 167.07396,65.912625 162.67239,53.27525 88.393568,94.936859 Z"
       id="path5049" />
    <path
       inkscape:connector-curvature="0"
       id="path5051-6"
       d="M 88.393775,111.34162 167.07549,65.914723 162.67342,53.278319 88.393775,94.937468 Z"
       style="display:inline;opacity:1;fill:#a3afb9;fill-opacity:1;stroke:none;stroke-width:3.64287996px;stroke-linecap:butt;stroke-linejoin:miter;stroke-opacity:1" />
  </g>
  <path
     inkscape:connector-curvature="0"
     id="path4554"
     style="font-style:normal;font-variant:normal;font-weight:normal;font-stretch:normal;font-size:29.06233215px;line-height:1.25;font-family:'Droid Sans';-inkscape-font-specification:'Droid Sans, Normal';font-variant-ligatures:normal;font-variant-caps:normal;font-variant-numeric:normal;font-feature-settings:normal;text-align:center;letter-spacing:0px;word-spacing:0px;writing-mode:lr-tb;text-anchor:middle;fill:#000000;fill-opacity:1;stroke:none;stroke-width:1.30181825"
     d="m 177.951,40.999645 h -0.20341 q -0.55936,0.864484 -1.32215,1.652691 -0.73735,0.762781 -1.72896,1.347579 -0.96622,0.584799 -2.18663,0.915337 -1.22046,0.330539 -2.74604,0.330539 -2.3646,0 -4.32241,-0.915336 -1.95778,-0.915338 -3.35622,-2.720587 -1.39845,-1.830673 -2.16123,-4.525831 -0.76277,-2.695159 -0.76277,-6.254803 0,-3.585068 0.76277,-6.280228 0.76278,-2.720584 2.16123,-4.551258 1.39844,-1.830673 3.35622,-2.746011 1.95781,-0.940764 4.32241,-0.940764 1.50016,0 2.72059,0.330539 1.22045,0.330538 2.18665,0.889911 0.99162,0.559372 1.75439,1.296727 0.76279,0.737356 1.32215,1.550988 h 0.30512 q -0.0763,-0.864485 -0.15247,-1.652691 -0.051,-0.661077 -0.10179,-1.34758 -0.0508,-0.711929 -0.0508,-1.118747 V 5.1743741 h 4.62753 V 44.737271 h -3.73764 z m -7.29727,0.406816 q 1.93239,0 3.25453,-0.584797 1.34758,-0.5848 2.16122,-1.779823 0.83906,-1.195022 1.22045,-2.974846 0.40683,-1.805247 0.45766,-4.195293 v -1.042468 q 0,-2.568028 -0.35596,-4.551258 -0.33053,-2.008655 -1.1696,-3.356236 -0.81363,-1.373006 -2.18665,-2.059508 -1.37299,-0.711927 -3.4325,-0.711927 -3.43251,0 -5.05975,2.771435 -1.60185,2.771437 -1.60185,7.958346 0,5.314039 1.60185,7.93292 1.62724,2.593455 5.1106,2.593455 z" />
  <path
     inkscape:connector-curvature="0"
     id="path4556"
     style="font-style:normal;font-variant:normal;font-weight:normal;font-stretch:normal;font-size:29.06233215px;line-height:1.25;font-family:'Droid Sans';-inkscape-font-specification:'Droid Sans, Normal';font-variant-ligatures:normal;font-variant-caps:normal;font-variant-numeric:normal;font-feature-settings:normal;text-align:center;letter-spacing:0px;word-spacing:0px;writing-mode:lr-tb;text-anchor:middle;fill:#000000;fill-opacity:1;stroke:none;stroke-width:1.30181825"
     d="m 206.9621,44.737271 -0.94075,-3.864757 h -0.20343 q -0.83905,1.144173 -1.67812,1.983229 -0.83905,0.813633 -1.83067,1.347581 -0.9916,0.533947 -2.21206,0.788207 -1.22044,0.25426 -2.82228,0.25426 -1.7544,0 -3.22911,-0.50852 -1.4747,-0.483095 -2.56803,-1.500137 -1.0679,-1.042466 -1.67811,-2.593453 -0.61025,-1.576414 -0.61025,-3.712201 0,-4.169869 2.924,-6.407358 2.94942,-2.23749 8.94996,-2.440899 l 4.6784,-0.177975 v -1.754396 q 0,-1.703541 -0.38139,-2.847712 -0.35597,-1.144175 -1.06788,-1.830674 -0.68652,-0.711931 -1.72899,-1.017043 -1.01704,-0.305112 -2.33918,-0.305112 -2.11037,0 -3.94104,0.610224 -1.80524,0.610225 -3.48336,1.474709 l -1.62728,-3.483365 q 1.88153,-1.017042 4.19531,-1.728969 2.31375,-0.71193 4.85637,-0.71193 2.59345,0 4.47499,0.533948 1.90694,0.50852 3.12739,1.652691 1.24587,1.118745 1.85609,2.873141 0.61023,1.754395 0.61023,4.246147 v 19.120371 z m -8.49229,-3.229106 q 1.551,0 2.87313,-0.483095 1.32218,-0.483094 2.28834,-1.449282 0.9662,-0.991615 1.50014,-2.466324 0.55938,-1.500136 0.55938,-3.508791 v -2.517177 l -3.63593,0.177974 q -2.28834,0.101698 -3.83933,0.50852 -1.55098,0.406817 -2.49174,1.144172 -0.91535,0.711928 -1.32216,1.754396 -0.40682,1.01704 -0.40682,2.313768 0,2.339194 1.22046,3.432512 1.24588,1.093321 3.25454,1.093321 z" />
  <path
     inkscape:connector-curvature="0"
     id="path4558"
     style="font-style:normal;font-variant:normal;font-weight:normal;font-stretch:normal;font-size:29.06233215px;line-height:1.25;font-family:'Droid Sans';-inkscape-font-specification:'Droid Sans, Normal';font-variant-ligatures:normal;font-variant-caps:normal;font-variant-numeric:normal;font-feature-settings:normal;text-align:center;letter-spacing:0px;word-spacing:0px;writing-mode:lr-tb;text-anchor:middle;fill:#000000;fill-opacity:1;stroke:none;stroke-width:1.30181825"
     d="m 223.99754,44.737271 -9.53477,-27.917777 h 4.78009 l 5.05977,15.535303 q 0.2797,0.839058 0.66111,2.161211 0.38138,1.322152 0.76277,2.695159 0.38138,1.373006 0.68649,2.593455 0.33055,1.220448 0.43226,1.856098 h 0.1779 q 0.12704,-0.63565 0.43225,-1.856098 0.30511,-1.220449 0.68649,-2.593455 0.38142,-1.373007 0.7628,-2.695159 0.38139,-1.322153 0.66105,-2.161211 l 5.0598,-15.535303 h 4.78008 l -9.53475,27.917777 z" />
  <path
     inkscape:connector-curvature="0"
     id="path4560"
     style="font-style:normal;font-variant:normal;font-weight:normal;font-stretch:normal;font-size:29.06233215px;line-height:1.25;font-family:'Droid Sans';-inkscape-font-specification:'Droid Sans, Normal';font-variant-ligatures:normal;font-variant-caps:normal;font-variant-numeric:normal;font-feature-settings:normal;text-align:center;letter-spacing:0px;word-spacing:0px;writing-mode:lr-tb;text-anchor:middle;fill:#000000;fill-opacity:1;stroke:none;stroke-width:1.30181825"
     d="m 248.43196,44.737271 h -4.62754 V 16.819494 h 4.62754 z M 243.44845,9.267964 q 0,-1.5255609 0.76278,-2.2120637 0.78822,-0.6865027 1.93238,-0.6865027 0.55938,0 1.04248,0.1779747 0.50852,0.1525499 0.86447,0.508521 0.3814,0.3559637 0.58479,0.9153363 0.22885,0.5339476 0.22885,1.2967269 0,1.4747105 -0.81364,2.2120655 -0.7882,0.711927 -1.90695,0.711927 -1.14416,0 -1.93238,-0.711927 -0.76278,-0.71193 -0.76278,-2.2120655 z" />
  <path
     inkscape:connector-curvature="0"
     id="path4562"
     style="font-style:normal;font-variant:normal;font-weight:normal;font-stretch:normal;font-size:29.06233215px;line-height:1.25;font-family:'Droid Sans';-inkscape-font-specification:'Droid Sans, Normal';font-variant-ligatures:normal;font-variant-caps:normal;font-variant-numeric:normal;font-feature-settings:normal;text-align:center;letter-spacing:0px;word-spacing:0px;writing-mode:lr-tb;text-anchor:middle;fill:#000000;fill-opacity:1;stroke:none;stroke-width:1.30181825"
     d="M 274.77331,44.737271 V 26.761072 q 0,-3.305384 -1.34757,-4.958078 -1.32215,-1.652689 -4.16987,-1.652689 -2.05952,0 -3.45794,0.661076 -1.39843,0.661077 -2.26292,1.957804 -0.83904,1.296727 -1.22045,3.178254 -0.35596,1.881524 -0.35596,4.322424 v 14.467408 h -4.62756 V 16.819494 h 3.76307 l 0.66109,3.763053 h 0.25424 q 0.63566,-1.093321 1.50014,-1.881528 0.88992,-0.813633 1.93238,-1.347579 1.04247,-0.533946 2.21205,-0.788206 1.16962,-0.254261 2.39006,-0.254261 4.65297,0 6.99215,2.440898 2.36464,2.415473 2.36464,7.754939 v 18.230461 z" />
  <path
     inkscape:connector-curvature="0"
     id="path4564"
     style="font-style:normal;font-variant:normal;font-weight:normal;font-stretch:normal;font-size:29.06233215px;line-height:1.25;font-family:'Droid Sans';-inkscape-font-specification:'Droid Sans, Normal';font-variant-ligatures:normal;font-variant-caps:normal;font-variant-numeric:normal;font-feature-settings:normal;text-align:center;letter-spacing:0px;word-spacing:0px;writing-mode:lr-tb;text-anchor:middle;fill:#000000;fill-opacity:1;stroke:none;stroke-width:1.30181825"
     d="m 298.72464,45.245791 q -2.56804,0 -4.80554,-0.788206 -2.23748,-0.813632 -3.89017,-2.542603 -1.65268,-1.754396 -2.59346,-4.449556 -0.94077,-2.720584 -0.94077,-6.534487 0,-3.991886 0.96619,-6.763323 0.96621,-2.796863 2.64433,-4.525833 1.70354,-1.754397 3.96644,-2.542602 2.26293,-0.788208 4.85638,-0.788208 1.98323,0 3.86474,0.432242 1.90697,0.432242 3.17825,1.067893 l -1.37299,3.915607 q -0.5848,-0.254258 -1.29673,-0.483092 -0.71192,-0.254262 -1.4747,-0.432242 -0.76279,-0.203409 -1.50015,-0.305113 -0.73734,-0.127125 -1.39842,-0.127125 -3.9919,0 -5.82256,2.56803 -1.83067,2.542602 -1.83067,7.932918 0,5.364892 1.83067,7.856642 1.8561,2.466324 5.61916,2.466324 2.05948,0 3.71219,-0.457668 1.67812,-0.483093 3.0511,-1.118744 v 4.119016 q -1.37298,0.737355 -2.9494,1.118745 -1.55098,0.38139 -3.81389,0.38139 z" />
  <path
     inkscape:connector-curvature="0"
     id="path4566"
     style="font-style:normal;font-variant:normal;font-weight:normal;font-stretch:normal;font-size:29.06233215px;line-height:1.25;font-family:'Droid Sans';-inkscape-font-specification:'Droid Sans, Normal';font-variant-ligatures:normal;font-variant-caps:normal;font-variant-numeric:normal;font-feature-settings:normal;text-align:center;letter-spacing:0px;word-spacing:0px;writing-mode:lr-tb;text-anchor:middle;fill:#000000;fill-opacity:1;stroke:none;stroke-width:1.30181825"
     d="m 316.77713,44.737271 h -4.62756 V 16.819494 h 4.62756 z M 311.79359,9.267964 q 0,-1.5255609 0.7628,-2.2120637 0.78821,-0.6865027 1.93236,-0.6865027 0.55939,0 1.04248,0.1779747 0.50852,0.1525499 0.86448,0.508521 0.38141,0.3559637 0.5848,0.9153363 0.22885,0.5339476 0.22885,1.2967269 0,1.4747105 -0.81365,2.2120655 -0.7882,0.711927 -1.90696,0.711927 -1.14415,0 -1.93236,-0.711927 -0.7628,-0.71193 -0.7628,-2.2120655 z" />
  <rect
     style="opacity:1;fill:#c51919;fill-opacity:1;fill-rule:nonzero;stroke:#f2b22c;stroke-width:0;stroke-linecap:butt;stroke-linejoin:round;stroke-miterlimit:4;stroke-dasharray:none;stroke-dashoffset:0;stroke-opacity:1;paint-order:normal"
     id="rect865"
     width="64.510513"
     height="74.786484"
     x="242.13269"
     y="50.573166"
     ry="4.2816706" />
  <g
     id="g875"
     transform="matrix(1.7989162,0,0,1.7989162,-9.6686163,-34.256988)">
    <path
       d="m 148.40841,84.280916 q -0.78384,0 -1.29007,-0.114305 -0.52256,-0.114305 -0.89814,-0.293939 v -2.416833 q 0.42457,0.1633 0.86549,0.24495 0.44091,0.09797 1.01246,0.09797 0.4409,0 0.8165,-0.130639 0.37558,-0.114305 0.65319,-0.440908 0.29394,-0.31027 0.44091,-0.849158 0.1633,-0.522559 0.1633,-1.355386 V 58.31629 h 2.97205 v 20.510422 q 0,1.257406 -0.27761,2.253533 -0.27761,1.012458 -0.86549,1.714645 -0.58787,0.718518 -1.48602,1.094107 -0.88182,0.391919 -2.10657,0.391919 z m 1.53501,-30.814623 q 0,-0.979796 0.4899,-1.420705 0.50624,-0.440909 1.24109,-0.440909 0.35925,0 0.66952,0.114305 0.3266,0.09798 0.55522,0.326599 0.24495,0.228619 0.37559,0.587878 0.14697,0.34293 0.14697,0.832828 0,0.947138 -0.52256,1.420706 -0.50623,0.457238 -1.22474,0.457238 -0.73485,0 -1.24109,-0.457238 -0.4899,-0.457239 -0.4899,-1.420706 z"
       style="font-style:normal;font-variant:normal;font-weight:normal;font-stretch:normal;font-size:29.06233215px;line-height:1.25;font-family:'Droid Sans';-inkscape-font-specification:'Droid Sans, Normal';font-variant-ligatures:normal;font-variant-caps:normal;font-variant-numeric:normal;font-feature-settings:normal;text-align:center;letter-spacing:0px;word-spacing:0px;writing-mode:lr-tb;text-anchor:middle;fill:#000000;fill-opacity:1;stroke:none;stroke-width:0.8360973;stroke-miterlimit:4;stroke-dasharray:none"
       id="path4568"
       inkscape:connector-curvature="0" />
    <path
       d="m 169.58837,71.331263 q 0,1.306396 -0.47357,2.286194 -0.47357,0.979797 -1.37171,1.649325 -0.88183,0.653198 -2.13923,0.979797 -1.25741,0.326599 -2.82508,0.326599 -1.77997,0 -3.05371,-0.293939 -1.27373,-0.277609 -2.2372,-0.832828 v -2.710772 q 0.50623,0.261279 1.12677,0.522559 0.62054,0.244949 1.30639,0.440909 0.68587,0.195959 1.40438,0.326599 0.73485,0.114305 1.45337,0.114305 1.06144,0 1.79629,-0.17963 0.75118,-0.179629 1.20842,-0.506228 0.47357,-0.34293 0.68586,-0.816498 0.21229,-0.489898 0.21229,-1.077777 0,-0.506229 -0.1633,-0.914478 -0.16331,-0.408249 -0.60421,-0.800167 -0.42458,-0.408249 -1.17575,-0.816498 -0.75118,-0.408248 -1.92694,-0.914478 -1.17576,-0.506228 -2.12289,-0.996127 -0.93081,-0.489899 -1.58401,-1.094106 -0.6532,-0.604208 -1.01245,-1.388047 -0.34294,-0.800167 -0.34294,-1.894274 0,-1.143097 0.44091,-2.024915 0.45725,-0.898146 1.27374,-1.502355 0.81649,-0.604208 1.9596,-0.914477 1.14309,-0.31027 2.54747,-0.31027 1.58401,0 2.89039,0.34293 1.32273,0.342928 2.49849,0.898147 l -1.02878,2.400503 q -1.06145,-0.473569 -2.18822,-0.816497 -1.11043,-0.359259 -2.26987,-0.359259 -1.66565,0 -2.46581,0.555218 -0.80017,0.538888 -0.80017,1.551345 0,0.571549 0.17962,0.996127 0.19596,0.42458 0.65321,0.800168 0.45723,0.37559 1.22474,0.767508 0.76751,0.37559 1.9106,0.849158 1.17576,0.489899 2.09024,0.979797 0.93081,0.489899 1.584,1.110437 0.6532,0.604208 0.99613,1.388046 0.34293,0.783837 0.34293,1.877945 z"
       style="font-style:normal;font-variant:normal;font-weight:normal;font-stretch:normal;font-size:29.06233215px;line-height:1.25;font-family:'Droid Sans';-inkscape-font-specification:'Droid Sans, Normal';font-variant-ligatures:normal;font-variant-caps:normal;font-variant-numeric:normal;font-feature-settings:normal;text-align:center;letter-spacing:0px;word-spacing:0px;writing-mode:lr-tb;text-anchor:middle;fill:#000000;fill-opacity:1;stroke:none;stroke-width:0.8360973;stroke-miterlimit:4;stroke-dasharray:none"
       id="path4570"
       inkscape:connector-curvature="0" />
  </g>
</svg>
